<svg width="155" height="155" viewBox="0 0 155 155" fill="none" xmlns="http://www.w3.org/2000/svg">
<path d="M111.469 130.13C110.094 130.785 108.62 131.207 107.107 131.38V134.331C108.893 134.712 110.745 134.647 112.501 134.143L111.469 130.13Z" fill="#FF8C44"/>
<path d="M78.61 130.537L77.6648 134.143C79.6699 134.718 81.7953 134.718 83.8004 134.143L84.5711 131.657C82.52 131.823 80.4613 131.436 78.61 130.537Z" fill="#FF8C44"/>
<path d="M128.336 101.024H118.547C118.316 101.023 118.094 100.931 117.93 100.768C117.767 100.604 117.675 100.382 117.675 100.151V96.8365C117.675 96.6051 117.767 96.3833 117.93 96.2198C118.094 96.0562 118.316 95.9642 118.547 95.964H128.336C128.567 95.9642 128.789 96.0562 128.952 96.2198C129.116 96.3833 129.208 96.6051 129.208 96.8365V100.151C129.208 100.382 129.116 100.604 128.952 100.768C128.789 100.931 128.567 101.023 128.336 101.024Z" fill="#FF8C44"/>
<path d="M46.8114 45.494V39.3714C46.8107 39.1402 46.7186 38.9186 46.5551 38.7551C46.3917 38.5916 46.1701 38.4995 45.9389 38.4989H24.7394C24.5082 38.4995 24.2868 38.5917 24.1234 38.7552C23.96 38.9187 23.8681 39.1403 23.8677 39.3714V45.494C23.8681 45.7251 23.96 45.9467 24.1234 46.1102C24.2868 46.2737 24.5082 46.3658 24.7394 46.3665H45.9534C46.0675 46.3671 46.1805 46.3449 46.2859 46.3011C46.3912 46.2573 46.4867 46.1928 46.5667 46.1114C46.6467 46.0301 46.7095 45.9336 46.7516 45.8275C46.7936 45.7214 46.8139 45.608 46.8114 45.494Z" fill="#FF8C44"/>
<path d="M78.2311 38.9948C73.0971 40.1468 68.3004 42.4744 64.2184 45.7944C60.1364 49.1144 56.8804 53.3363 54.7065 58.1279L85.6318 72.1333L78.2311 38.9948Z" fill="#FF8C44"/>
<path d="M37.0553 90.7849H34.4226C34.1759 90.785 33.9393 90.8827 33.7644 91.0566C33.6778 91.1431 33.6092 91.2458 33.5626 91.3589C33.516 91.472 33.4922 91.5932 33.4927 91.7156V105.834H37.9859V91.7156C37.9862 91.5933 37.9623 91.4721 37.9157 91.3591C37.869 91.246 37.8005 91.1433 37.714 91.0568C37.6275 90.9704 37.5248 90.9018 37.4118 90.8552C37.2987 90.8085 37.1776 90.7846 37.0553 90.7849Z" fill="#FF8C44"/>
<path d="M43.8597 94.0714H41.2277C40.9811 94.0714 40.7444 94.1691 40.5696 94.343C40.4829 94.4294 40.4142 94.5321 40.3676 94.6453C40.321 94.7584 40.2973 94.8796 40.2979 95.002V105.834H44.7903V95.002C44.7889 94.7556 44.6904 94.5197 44.5162 94.3455C44.342 94.1713 44.1061 94.0728 43.8597 94.0714Z" fill="#FF8C44"/>
<path d="M119.772 138.767C118.187 137.283 115.148 134.928 112.501 134.158C110.743 134.647 108.894 134.712 107.107 134.346V135.815H111.469V138.723L119.772 138.767Z" fill="#191919"/>
<path d="M91.3221 57.0633C91.3363 57.3054 91.2624 57.5444 91.1139 57.7361C91.284 57.7578 91.4457 57.8231 91.5831 57.9257C91.7206 58.0282 91.8292 58.1646 91.8984 58.3215C91.9853 58.1774 92.1019 58.0534 92.2405 57.9578C92.379 57.8622 92.5363 57.7971 92.7019 57.767C92.8675 57.7368 93.0376 57.7422 93.201 57.7827C93.3644 57.8233 93.5172 57.8982 93.6494 58.0024C93.8607 58.17 94.0084 58.405 94.0681 58.6675C94.2309 58.4698 94.4557 58.3328 94.706 58.2787C94.9563 58.2245 95.2176 58.2563 95.4477 58.3689C95.6777 58.4816 95.863 58.6684 95.9738 58.8994C96.0845 59.1303 96.1141 59.3919 96.0579 59.6417C96.2965 59.5542 96.5576 59.5494 96.7993 59.6282C97.041 59.7069 97.2491 59.8646 97.3904 60.0759C97.5317 60.2872 97.5978 60.5398 97.5783 60.7932C97.5587 61.0466 97.4545 61.2861 97.2824 61.4732C97.5443 61.4999 97.7888 61.6164 97.9746 61.8029C98.1603 61.9893 98.2759 62.2344 98.3015 62.4963C98.3272 62.7583 98.2615 63.0211 98.1155 63.2401C97.9695 63.4591 97.7522 63.6209 97.5005 63.6979C97.6315 63.7733 97.7458 63.8744 97.8366 63.9951C97.9273 64.1159 97.9927 64.2538 98.0286 64.4005C98.0656 64.5469 98.0727 64.6992 98.0492 64.8484C98.0258 64.9975 97.9725 65.1404 97.8924 65.2684L97.8051 64.8903C96.7582 60.5571 94.6642 63.1018 94.4025 64.7449C94.3443 65.0503 94.1553 65.0648 93.778 64.6286C92.9928 63.698 91.916 65.1781 93.5155 66.4026C93.6686 66.8312 93.7229 67.2873 93.6754 67.7396L93.6326 68.3519C93.4881 68.3021 93.356 68.2216 93.2456 68.1159C93.1351 68.0102 93.0489 67.8818 92.9928 67.7396C92.8909 67.9802 92.709 68.1783 92.478 68.3003C92.2469 68.4223 91.9808 68.4608 91.7246 68.4093C91.4686 68.3578 91.2381 68.2198 91.0718 68.0184C90.9056 67.817 90.8137 67.5645 90.8116 67.3034C90.6043 67.4441 90.3564 67.5123 90.1063 67.4974C89.8563 67.4826 89.6182 67.3855 89.429 67.2212C89.2399 67.057 89.1104 66.8348 89.0606 66.5893C89.0109 66.3438 89.0437 66.0887 89.1539 65.8638C88.9925 65.8825 88.8289 65.8666 88.6741 65.8173C88.5192 65.768 88.3766 65.6864 88.2556 65.5779C88.1347 65.4694 88.0381 65.3364 87.9724 65.1878C87.9067 65.0392 87.8732 64.8783 87.8743 64.7158C87.8837 64.5248 87.9356 64.3382 88.0261 64.1697C88.1167 64.0011 88.2436 63.8549 88.3978 63.7416C88.1453 63.6678 87.926 63.5091 87.7772 63.2922C87.6284 63.0753 87.5591 62.8136 87.5812 62.5515C87.5949 62.3906 87.6427 62.2345 87.7213 62.0934C87.8 61.9524 87.9077 61.8297 88.0373 61.7334C87.8723 61.5741 87.7674 61.3626 87.7403 61.1349C87.5505 61.2827 87.3136 61.3568 87.0734 61.3433C86.8332 61.3299 86.606 61.2298 86.4338 61.0617C86.2617 60.8936 86.1564 60.6688 86.1372 60.429C86.1181 60.1892 86.1865 59.9505 86.3299 59.7573C86.088 59.729 85.8646 59.6138 85.7011 59.4332C85.5377 59.2526 85.4454 59.0189 85.4413 58.7754C85.437 58.5315 85.522 58.2944 85.6803 58.1088C85.8386 57.9231 86.0593 57.8017 86.3008 57.7674C86.1489 57.579 86.0708 57.3417 86.0811 57.0999C86.0914 56.8581 86.1893 56.6283 86.3566 56.4534C86.5243 56.2786 86.75 56.1709 86.9913 56.1507C87.2327 56.1304 87.4732 56.1988 87.6676 56.3432C87.7016 56.0967 87.8232 55.8708 88.0104 55.7068C88.1975 55.5429 88.4375 55.452 88.6863 55.4508C88.9351 55.4487 89.1763 55.5362 89.3657 55.6974C89.5552 55.8587 89.6802 56.0827 89.718 56.3286C89.862 56.2187 90.0333 56.15 90.2134 56.1298C90.3936 56.1097 90.5758 56.139 90.7406 56.2144C90.9054 56.2899 91.0465 56.4088 91.1489 56.5583C91.2514 56.7079 91.3112 56.8824 91.3221 57.0633Z" fill="#191919"/>
<path d="M70.2634 71.7238L71.8048 72.2595C72.1821 72.3246 72.5395 72.4738 72.8518 72.6958C72.9972 71.3166 71.7175 71.0113 70.2634 71.7238Z" fill="#191919"/>
<path d="M68.1557 75.8966L67.385 75.9257C67.6468 76.7545 68.6501 76.8127 69.6236 76.4055L68.1557 75.8966Z" fill="#191919"/>
<path d="M83.8149 134.143C81.8097 134.718 79.6844 134.718 77.6793 134.143C75.0328 134.914 71.9937 137.269 70.4087 138.752C76.268 138.752 79.9607 138.708 84.5557 138.694C84.591 137.144 84.3398 135.602 83.8149 134.143Z" fill="#191919"/>
<path d="M105.406 70.0808C105.243 70.0811 105.083 70.1299 104.946 70.2211C104.81 70.3122 104.704 70.4416 104.642 70.5929C104.579 70.7443 104.562 70.9108 104.594 71.0715C104.626 71.2322 104.705 71.3799 104.82 71.4959C104.936 71.6115 105.084 71.6902 105.245 71.7222C105.405 71.7542 105.572 71.738 105.723 71.6758C105.926 71.5915 106.088 71.43 106.172 71.2268C106.256 71.0237 106.256 70.7954 106.173 70.5921C106.109 70.4408 106.003 70.3116 105.867 70.2206C105.73 70.1297 105.57 70.081 105.406 70.0808Z" fill="#191919"/>
<path d="M74.2912 75.5474C74.2861 75.677 74.231 75.7997 74.1375 75.8896C74.044 75.9796 73.9193 76.0298 73.7895 76.0298C73.6598 76.0298 73.535 75.9796 73.4415 75.8896C73.348 75.7997 73.2929 75.677 73.2878 75.5474C73.2929 75.4177 73.348 75.295 73.4415 75.2051C73.535 75.1152 73.6598 75.0649 73.7895 75.0649C73.9193 75.0649 74.044 75.1152 74.1375 75.2051C74.231 75.295 74.2861 75.4177 74.2912 75.5474Z" fill="#191919"/>
<path d="M87.7985 78.5867L85.426 82.9628C86.2541 82.2794 87.1266 81.5531 88.2172 80.7533C87.9876 79.4737 87.8131 78.5867 87.7985 78.5867Z" fill="#191919"/>
<path d="M96.1444 95.7439L95.7081 102.956L94.6321 100.745L96.1444 95.7439Z" fill="#191919"/>
<path d="M100.26 76.7691L91.4048 91.8032H102.295V85.4494L104.025 82.2366H107.108V91.8032H107.413L116.282 76.7691H100.26Z" fill="#191919"/>
<path d="M95.2437 68.6543L95.823 69.4586L95.9064 68.916C95.6776 68.8502 95.4557 68.7626 95.2437 68.6543Z" fill="#191919"/>
<path d="M114.145 75.7511C114.224 75.5076 114.248 75.2495 114.215 74.9956C114.183 74.7416 114.094 74.4981 113.956 74.2825C114.319 74.2098 116.239 73.8034 116.634 73.1781C117.027 72.5383 114.192 72.8437 113.698 72.872C113.51 72.8865 113.327 72.9406 113.162 73.0307C112.997 73.1208 112.852 73.2449 112.738 73.3947C112.331 73.9182 111.618 74.8205 110.862 75.7504" stroke="#2E2E2E" stroke-width="0.769171" stroke-linecap="round" stroke-linejoin="round"/>
<path d="M117.358 75.6493C118.007 75.4524 118.673 75.3161 119.347 75.2422C121.395 74.897 121.383 75.4167 119.711 76.1437C117.87 76.9212 116.183 78.0226 114.73 79.3956" stroke="#2E2E2E" stroke-width="0.769171" stroke-linecap="round" stroke-linejoin="round"/>
<path d="M116.747 74.0788C117.687 73.7324 118.649 73.4461 119.626 73.2216C121.616 72.6002 121.663 73.1221 120.106 74.0635C119.402 74.4844 118.722 74.9444 118.07 75.441" stroke="#2E2E2E" stroke-width="0.769171" stroke-linecap="round" stroke-linejoin="round"/>
<path d="M116.557 72.6546C117.474 71.9847 118.425 71.3635 119.407 70.7933C121.276 69.8642 121.397 70.3426 120.032 71.5495C119.354 72.1939 118.721 72.8844 118.138 73.6159" stroke="#2E2E2E" stroke-width="0.769171" stroke-linecap="round" stroke-linejoin="round"/>
<path d="M114.692 72.8007C115.37 71.8961 116.1 71.0316 116.878 70.2116C118.375 68.7575 118.656 69.1968 117.692 70.7474C117.379 71.2866 117.102 71.846 116.863 72.4219" stroke="#2E2E2E" stroke-width="0.769171" stroke-linecap="round" stroke-linejoin="round"/>
<path d="M117.476 76.4346C117.32 75.3791 116.921 74.374 116.312 73.498" stroke="#2E2E2E" stroke-width="0.769171" stroke-linecap="round" stroke-linejoin="round"/>
<path d="M91.1428 112.304H99.9395" stroke="#2E2E2E" stroke-width="0.769171" stroke-linecap="round" stroke-linejoin="round"/>
<path d="M81.8115 112.304H22.094C21.3719 112.305 20.6567 112.163 19.9895 111.887C19.3223 111.611 18.7163 111.206 18.2061 110.695C17.6952 110.185 17.2901 109.579 17.0142 108.912C16.7382 108.245 16.5968 107.53 16.5982 106.808V36.7118C16.5975 35.9899 16.7393 35.275 17.0153 34.6079C17.2912 33.9409 17.696 33.3348 18.2065 32.8243C18.7169 32.3139 19.323 31.9091 19.9901 31.6331C20.6571 31.3571 21.3721 31.2154 22.094 31.216H129.804C130.526 31.2157 131.241 31.3576 131.908 31.6337C132.575 31.9098 133.181 32.3146 133.691 32.825C134.201 33.3354 134.606 33.9413 134.882 34.6083C135.158 35.2752 135.3 35.99 135.3 36.7118V106.808C135.301 107.53 135.159 108.245 134.883 108.912C134.607 109.579 134.202 110.185 133.691 110.695C133.181 111.206 132.575 111.611 131.908 111.887C131.241 112.163 130.526 112.305 129.804 112.304H108.459" stroke="#2E2E2E" stroke-width="0.769171" stroke-linecap="round" stroke-linejoin="round"/>
<path d="M97.9184 65.2974L97.8312 64.9193C96.7918 60.6763 94.7767 63.0274 94.4477 64.6698C94.352 65.1443 94.1277 65.0173 93.804 64.643C93.0188 63.7124 91.9512 65.165 93.5415 66.417C93.7145 66.991 93.7596 67.5972 93.6739 68.1911C93.5867 69.2518 92.9622 70.735 92.0024 71.1422C94.8663 73.0034 96.873 71.5929 96.7857 71.2439C96.391 71.019 96.0873 70.6632 95.927 70.2382C95.7668 69.8131 95.76 69.3454 95.9079 68.9158C96.3794 69.0858 96.8969 69.0765 97.362 68.8898C98.0056 68.5622 98.4235 67.6125 97.9184 65.2974Z" stroke="#2E2E2E" stroke-width="0.769171" stroke-linecap="round" stroke-linejoin="round"/>
<path d="M92.0007 71.1422C90.9102 71.3718 89.5287 70.8805 87.5366 72.1601C83.9159 74.4859 78.9145 78.6156 78.9145 78.6156C76.9729 76.1442 74.8496 73.8211 72.5623 71.6657" stroke="#2E2E2E" stroke-width="0.769171" stroke-linecap="round" stroke-linejoin="round"/>
<path d="M96.7842 71.2587C98.2674 71.8709 100.245 71.913 101.364 73.8325C101.703 74.4455 101.986 75.0876 102.212 75.7511" stroke="#2E2E2E" stroke-width="0.769171" stroke-linecap="round" stroke-linejoin="round"/>
<path d="M70.3069 71.7033C71.5927 71.091 72.7315 71.2755 72.8524 72.3033C73.0414 73.9105 70.9 76.185 69.0426 76.5891C68.2773 76.756 67.6 76.5891 67.3872 75.9309" stroke="#2E2E2E" stroke-width="0.769171" stroke-linecap="round" stroke-linejoin="round"/>
<path d="M67.6589 76.3665C69.6763 78.6717 72.4216 81.6625 75.3818 84.9381C76.133 85.7834 77.1554 86.3402 78.273 86.5128C79.3906 86.6853 80.5333 86.4627 81.5044 85.8833C84.0736 84.3152 85.455 82.7914 88.2087 80.7748C88.4666 82.2365 88.7857 84.2126 88.974 85.9996C90.2865 86.4144 91.6435 86.6731 93.0165 86.7703" stroke="#2E2E2E" stroke-width="0.769171" stroke-linecap="round" stroke-linejoin="round"/>
<path d="M72.8517 72.6982C72.5398 72.4762 72.182 72.3271 71.8047 72.262C71.8047 72.262 67.5763 70.7038 66.1222 70.0372C64.117 69.1188 63.8262 69.2351 64.7982 70.4007C65.2222 70.9081 67.3582 72.3347 66.2094 72.6836" stroke="#2E2E2E" stroke-width="0.769171" stroke-linecap="round" stroke-linejoin="round"/>
<path d="M68.1556 75.8818C66.8614 75.5757 64.3022 75.8244 63.168 75.8964C62.2381 75.9553 60.8988 76.2323 59.8679 76.3471C59.6345 76.3732 59.3735 76.0272 60.7404 75.4601L62.5718 74.7476" stroke="#2E2E2E" stroke-width="0.769171" stroke-linecap="round" stroke-linejoin="round"/>
<path d="M68.206 75.898C67.1476 75.9233 66.0937 76.0442 65.0582 76.26C64.2164 76.4636 62.7906 77.0031 61.8745 77.2343C61.6449 77.2932 61.3387 77.0047 62.6008 76.2164C62.7056 76.1567 62.887 76.0358 63.1135 75.9003" stroke="#2E2E2E" stroke-width="0.769171" stroke-linecap="round" stroke-linejoin="round"/>
<path d="M84.5688 131.671L83.8149 134.143" stroke="#2E2E2E" stroke-width="0.769171" stroke-linecap="round" stroke-linejoin="round"/>
<path d="M77.6792 134.143L78.6114 130.545" stroke="#2E2E2E" stroke-width="0.769171" stroke-linecap="round" stroke-linejoin="round"/>
<path d="M88.991 86.0018C85.7192 90.9596 84.9799 96.0276 77.9404 129.65C77.8264 130.198 78.79 130.681 79.3096 130.89C80.9834 131.537 82.7797 131.803 84.5689 131.671C85.0335 131.595 85.3564 131.441 85.4437 131.191L96.1445 95.7429L96.9151 95.3212" stroke="#2E2E2E" stroke-width="0.769171" stroke-linecap="round" stroke-linejoin="round"/>
<path d="M87.6094 91.8029C88.8938 91.0436 89.8675 89.8538 90.3577 88.4446" stroke="#2E2E2E" stroke-width="0.769171" stroke-linecap="round" stroke-linejoin="round"/>
<path d="M81.2703 131.453C81.532 131.497 89.8779 96.0635 89.8779 96.0635" stroke="#2E2E2E" stroke-width="0.769171" stroke-linecap="round" stroke-linejoin="round"/>
<path d="M102.295 121.028L99.5179 110.749L94.6321 100.745" stroke="#2E2E2E" stroke-width="0.769171" stroke-linecap="round" stroke-linejoin="round"/>
<path d="M107.108 131.38C109.274 131.133 112.298 130.13 112.124 129.374L108.215 111.141C107.9 109.693 107.531 108.258 107.11 106.837" stroke="#2E2E2E" stroke-width="0.769171" stroke-linecap="round" stroke-linejoin="round"/>
<path d="M102.294 100.847L99.9541 94.7984" stroke="#2E2E2E" stroke-width="0.769171" stroke-linecap="round" stroke-linejoin="round"/>
<path d="M110.568 130.537L107.108 116.012" stroke="#2E2E2E" stroke-width="0.769171" stroke-linecap="round" stroke-linejoin="round"/>
<path d="M91.4046 91.8029L90.6484 90.7995L99.5178 75.7509H115.526L116.281 76.7688" stroke="#2E2E2E" stroke-width="0.769171" stroke-linecap="round" stroke-linejoin="round"/>
<path d="M99.5178 75.7509L100.259 76.7688" stroke="#2E2E2E" stroke-width="0.769171" stroke-linecap="round" stroke-linejoin="round"/>
<path d="M84.5565 138.694C79.9645 138.708 76.2688 138.752 70.4087 138.752C71.9937 137.269 75.0328 134.914 77.6793 134.143C79.6844 134.718 81.8097 134.718 83.8149 134.143C84.3409 135.601 84.5923 137.144 84.5565 138.694Z" stroke="#2E2E2E" stroke-width="0.769171" stroke-linecap="round" stroke-linejoin="round"/>
<path d="M112.502 134.143L111.469 130.13" stroke="#2E2E2E" stroke-width="0.769171" stroke-linecap="round" stroke-linejoin="round"/>
<path d="M9.60376 138.766H142.308" stroke="#2E2E2E" stroke-width="0.769171" stroke-linecap="round" stroke-linejoin="round"/>
<path d="M107.108 135.814H102.294V85.4491L104.025 82.2355H107.108V135.814Z" stroke="#2E2E2E" stroke-width="0.769171" stroke-linecap="round" stroke-linejoin="round"/>
<path d="M104.025 82.2355V135.814" stroke="#2E2E2E" stroke-width="0.769171" stroke-linecap="round" stroke-linejoin="round"/>
<path d="M111.469 138.723H97.4241V135.815H111.469V138.723Z" stroke="#2E2E2E" stroke-width="0.769171" stroke-linecap="round" stroke-linejoin="round"/>
<path d="M96.3915 104.337C95.3717 104.67 94.3383 104.961 93.2942 105.208" stroke="#2E2E2E" stroke-width="0.769171" stroke-linecap="round" stroke-linejoin="round"/>
<path d="M119.321 76.3473C118.237 85.0011 113.863 92.9057 107.108 98.4216" stroke="#2E2E2E" stroke-width="0.769171" stroke-linecap="round" stroke-linejoin="round"/>
<path d="M119.51 74.4425C119.495 74.7042 119.466 74.966 119.452 75.2277" stroke="#2E2E2E" stroke-width="0.769171" stroke-linecap="round" stroke-linejoin="round"/>
<path d="M119.582 71.9734C119.582 72.3997 119.582 72.8153 119.569 73.2393" stroke="#2E2E2E" stroke-width="0.769171" stroke-linecap="round" stroke-linejoin="round"/>
<path d="M83.1752 105.994C76.8086 105.533 70.701 103.286 65.5534 99.5109C60.4058 95.7362 56.4266 90.5867 54.0726 84.6534C51.7185 78.72 51.085 72.2431 52.2446 65.9661C53.4043 59.689 56.3101 53.866 60.6287 49.1654C66.4174 42.8658 74.3712 38.9842 82.8989 38.297C100.944 36.8375 118.163 49.8534 119.553 70.7208" stroke="#2E2E2E" stroke-width="0.769171" stroke-linecap="round" stroke-linejoin="round"/>
<path d="M78.2166 38.9949L85.6318 72.1311L54.7065 58.115" stroke="#2E2E2E" stroke-width="0.769171" stroke-linecap="round" stroke-linejoin="round"/>
<path d="M64.3388 45.6853L59.2716 38.5004H51.9727" stroke="#2E2E2E" stroke-width="0.769171" stroke-linecap="round" stroke-linejoin="round"/>
<path d="M109.739 96.049L115.628 104.366H123.523" stroke="#2E2E2E" stroke-width="0.769171" stroke-linecap="round" stroke-linejoin="round"/>
<path d="M122.796 40.8126C122.799 41.3016 122.657 41.7806 122.388 42.1888C122.119 42.597 121.735 42.9161 121.284 43.1056C120.947 43.2472 120.583 43.3124 120.218 43.2965C119.853 43.2806 119.496 43.184 119.172 43.0136C118.849 42.8432 118.567 42.6033 118.348 42.3112C118.128 42.019 117.976 41.6818 117.903 41.3239C117.813 40.8854 117.844 40.4308 117.993 40.0086C118.141 39.5864 118.401 39.2123 118.746 38.9263C119.09 38.6404 119.505 38.4531 119.947 38.3846C120.39 38.3161 120.842 38.3689 121.257 38.5373C121.558 38.6593 121.832 38.8397 122.063 39.0679C122.294 39.2962 122.478 39.5679 122.603 39.8675C122.729 40.1667 122.795 40.4874 122.796 40.8126Z" stroke="#2E2E2E" stroke-width="0.769171" stroke-linecap="round" stroke-linejoin="round"/>
<path d="M129.208 47.05C129.211 47.539 129.069 48.018 128.8 48.4262C128.531 48.8344 128.146 49.1534 127.696 49.3429C127.207 49.5488 126.665 49.592 126.15 49.4663C125.634 49.3405 125.173 49.0524 124.834 48.6444C124.496 48.2365 124.297 47.7304 124.268 47.2009C124.238 46.6714 124.38 46.1465 124.672 45.7038C124.964 45.2611 125.391 44.924 125.889 44.7423C126.387 44.5607 126.931 44.5441 127.439 44.695C127.948 44.8459 128.394 45.1563 128.713 45.5804C129.031 46.0044 129.205 46.5197 129.208 47.05Z" stroke="#2E2E2E" stroke-width="0.769171" stroke-linecap="round" stroke-linejoin="round"/>
<path d="M117.896 49.5945L129.164 38.195" stroke="#2E2E2E" stroke-width="0.769171" stroke-linecap="round" stroke-linejoin="round"/>
<path d="M46.8259 39.3729C46.8253 39.1416 46.7332 38.9201 46.5697 38.7566C46.4062 38.5931 46.1846 38.501 45.9534 38.5004H24.7394C24.5083 38.5012 24.2869 38.5934 24.1236 38.7569C23.9603 38.9203 23.8683 39.1418 23.8677 39.3729V45.4955C23.8683 45.7265 23.9603 45.948 24.1236 46.1114C24.2869 46.2749 24.5083 46.3671 24.7394 46.3679H45.9534C46.1846 46.3673 46.4062 46.2752 46.5697 46.1117C46.7332 45.9482 46.8253 45.7267 46.8259 45.4955V39.3729Z" stroke="#2E2E2E" stroke-width="0.769171" stroke-linecap="round" stroke-linejoin="round"/>
<path d="M46.8259 52.1385C46.8253 51.9073 46.7332 51.6857 46.5697 51.5222C46.4062 51.3587 46.1846 51.2666 45.9534 51.266H24.7394C24.5083 51.2668 24.2869 51.359 24.1236 51.5225C23.9603 51.686 23.8683 51.9074 23.8677 52.1385V75.5329C23.8683 75.764 23.9603 75.9855 24.1236 76.1489C24.2869 76.3124 24.5083 76.4046 24.7394 76.4054H45.9534C46.1846 76.4048 46.4062 76.3127 46.5697 76.1492C46.7332 75.9857 46.8253 75.7641 46.8259 75.5329V52.1385Z" stroke="#2E2E2E" stroke-width="0.769171" stroke-linecap="round" stroke-linejoin="round"/>
<path d="M117.685 100.149C117.685 100.321 117.735 100.489 117.83 100.632C117.924 100.775 118.059 100.887 118.218 100.954C118.323 100.998 118.436 101.021 118.55 101.021H128.335C128.567 101.021 128.788 100.929 128.952 100.766C129.116 100.602 129.208 100.38 129.208 100.149V96.8487C129.208 96.6174 129.116 96.3956 128.952 96.232C128.788 96.0684 128.567 95.9765 128.335 95.9763H118.564C118.333 95.9766 118.11 96.0685 117.945 96.2318C117.781 96.3952 117.687 96.6168 117.685 96.8487V100.149Z" stroke="#2E2E2E" stroke-width="0.769171" stroke-linecap="round" stroke-linejoin="round"/>
<path d="M31.1959 105.834V87.0342C31.1937 86.7887 31.0947 86.554 30.9204 86.3811C30.7462 86.2081 30.5108 86.1109 30.2652 86.1105H27.6325C27.448 86.112 27.268 86.1678 27.115 86.2709C26.962 86.3741 26.8428 86.5201 26.7723 86.6906C26.7264 86.8046 26.7019 86.9263 26.7027 87.0488V105.834" stroke="#2E2E2E" stroke-width="0.769171" stroke-linecap="round" stroke-linejoin="round"/>
<path d="M23.8379 81.3639V105.834H57.3821" stroke="#2E2E2E" stroke-width="0.769171" stroke-linecap="round" stroke-linejoin="round"/>
<path d="M37.9859 105.834V91.7157C37.9845 91.4693 37.886 91.2334 37.7118 91.0592C37.5376 90.885 37.3017 90.7865 37.0553 90.7851H34.4226C34.1759 90.7851 33.9393 90.8828 33.7644 91.0568C33.6778 91.1432 33.6092 91.2459 33.5626 91.359C33.516 91.4721 33.4922 91.5934 33.4927 91.7157V105.834" stroke="#2E2E2E" stroke-width="0.769171" stroke-linecap="round" stroke-linejoin="round"/>
<path d="M44.7903 105.834V95.0021C44.7889 94.7557 44.6904 94.5198 44.5162 94.3456C44.342 94.1714 44.1061 94.0729 43.8597 94.0715H41.2278C40.9808 94.0713 40.7439 94.169 40.5688 94.3432C40.4822 94.4296 40.4137 94.5324 40.367 94.6455C40.3204 94.7586 40.2966 94.8798 40.2971 95.0021V105.834" stroke="#2E2E2E" stroke-width="0.769171" stroke-linecap="round" stroke-linejoin="round"/>
<path d="M51.5809 105.834V90.945C51.5795 90.6986 51.481 90.4627 51.3068 90.2885C51.1325 90.1143 50.8966 90.0158 50.6502 90.0144H48.0175C47.7708 90.0144 47.5342 90.1121 47.3593 90.2861C47.2727 90.3725 47.2041 90.4752 47.1574 90.5883C47.1108 90.7014 47.0871 90.8227 47.0877 90.945V105.834" stroke="#2E2E2E" stroke-width="0.769171" stroke-linecap="round" stroke-linejoin="round"/>
<path d="M22.283 84.2568L23.8389 81.3493L25.3795 84.2568" stroke="#2E2E2E" stroke-width="0.769171" stroke-linecap="round" stroke-linejoin="round"/>
<path d="M54.5029 104.279L57.3813 105.834L54.5037 107.404" stroke="#2E2E2E" stroke-width="0.769171" stroke-linecap="round" stroke-linejoin="round"/>
<path d="M92.001 71.1422L92.2773 74.0352L94.923 72.0874L97.4241 73.8614L96.7843 71.2586" stroke="#2E2E2E" stroke-width="0.769171" stroke-linecap="round" stroke-linejoin="round"/>
<path d="M89.7178 71.3168L94.9227 81.3494L94.8646 83.6316" stroke="#2E2E2E" stroke-width="0.769171" stroke-linecap="round" stroke-linejoin="round"/>
<path d="M99.1398 72.0294L94.9229 81.3495" stroke="#2E2E2E" stroke-width="0.769171" stroke-linecap="round" stroke-linejoin="round"/>
<path d="M93.9485 72.8146L94.9227 74.5152L95.9261 72.8146" stroke="#2E2E2E" stroke-width="0.769171" stroke-linecap="round" stroke-linejoin="round"/>
<path d="M93.9485 79.4589L94.9227 74.5149L95.7661 79.4589" stroke="#2E2E2E" stroke-width="0.769171" stroke-linecap="round" stroke-linejoin="round"/>
<path d="M39.7184 70.8223C37.8636 70.8223 36.0848 70.0855 34.7732 68.774C33.4617 67.4624 32.7249 65.6836 32.7249 63.8288C32.7249 61.974 33.4617 60.1952 34.7732 58.8836C36.0848 57.5721 37.8636 56.8353 39.7184 56.8353" stroke="#2E2E2E" stroke-width="0.769171" stroke-linecap="round" stroke-linejoin="round"/>
<path d="M37.7676 62.7529H30.9922" stroke="#2E2E2E" stroke-width="0.769171" stroke-linecap="round" stroke-linejoin="round"/>
<path d="M37.7676 64.9049H30.9922" stroke="#2E2E2E" stroke-width="0.769171" stroke-linecap="round" stroke-linejoin="round"/>
<path d="M146.54 58.0131V66.01" stroke="#2E2E2E" stroke-width="0.769171" stroke-linecap="round" stroke-linejoin="round"/>
<path d="M150.538 62.0189H142.541" stroke="#2E2E2E" stroke-width="0.769171" stroke-linecap="round" stroke-linejoin="round"/>
<path d="M67.2251 26.5927L75.7745 19.4538L80.4851 25.1095L90.0088 17.1708" stroke="#2E2E2E" stroke-width="0.769171" stroke-linecap="round" stroke-linejoin="round"/>
<path d="M85.4727 16.7493L90.0087 17.171L89.587 21.6925" stroke="#2E2E2E" stroke-width="0.769171" stroke-linecap="round" stroke-linejoin="round"/>
<path d="M108.488 75.7512L105.813 71.6513" stroke="#2E2E2E" stroke-width="0.769171" stroke-linecap="round" stroke-linejoin="round"/>
<path d="M104.578 70.9098C104.574 71.0208 104.593 71.1314 104.634 71.2349C104.674 71.3384 104.734 71.4328 104.812 71.5124C104.889 71.5921 104.982 71.6554 105.084 71.6986C105.187 71.7418 105.296 71.7639 105.408 71.7638C105.519 71.7637 105.629 71.7413 105.731 71.698C105.833 71.6546 105.925 71.5911 106.003 71.5113C106.08 71.4315 106.14 71.3371 106.181 71.2335C106.221 71.1299 106.239 71.0193 106.236 70.9083C106.229 70.6927 106.139 70.4883 105.984 70.3382C105.829 70.1882 105.622 70.1044 105.406 70.1046C105.19 70.1048 104.983 70.189 104.829 70.3393C104.674 70.4896 104.584 70.6942 104.578 70.9098Z" stroke="#2E2E2E" stroke-width="0.769171" stroke-linecap="round" stroke-linejoin="round"/>
<path d="M8.00494 73.7451C8.00479 74.0296 7.9203 74.3077 7.76214 74.5442C7.60398 74.7807 7.37926 74.965 7.11639 75.0738C6.85351 75.1826 6.56428 75.211 6.28525 75.1555C6.00621 75.0999 5.74991 74.9629 5.54874 74.7617C5.34756 74.5606 5.21054 74.3043 5.155 74.0252C5.09946 73.7462 5.12789 73.457 5.2367 73.1941C5.3455 72.9312 5.5298 72.7065 5.76629 72.5483C6.00279 72.3902 6.28086 72.3057 6.56537 72.3055C6.75464 72.3047 6.9422 72.3414 7.11722 72.4135C7.29225 72.4855 7.45127 72.5915 7.58511 72.7254C7.71894 72.8592 7.82495 73.0182 7.89701 73.1933C7.96907 73.3683 8.00575 73.5558 8.00494 73.7451Z" stroke="#2E2E2E" stroke-width="0.769171" stroke-linecap="round" stroke-linejoin="round"/>
<path d="M78.9146 78.6155L79.4526 79.1972" stroke="#2E2E2E" stroke-width="0.769171" stroke-linecap="round" stroke-linejoin="round"/>
<path d="M70.1621 79.1828C71.6591 80.8841 76.923 76.26 75.4252 74.5587" stroke="#2E2E2E" stroke-width="0.769171" stroke-linecap="round" stroke-linejoin="round"/>
<path d="M85.429 82.962L87.8129 78.5859C87.8129 78.5859 87.9744 79.4966 88.2071 80.7762" stroke="#2E2E2E" stroke-width="0.769171" stroke-linecap="round" stroke-linejoin="round"/>
<path d="M96.1445 95.7438L95.7083 102.955" stroke="#2E2E2E" stroke-width="0.769171" stroke-linecap="round" stroke-linejoin="round"/>
<path d="M107.107 91.8031H107.413L116.281 76.7691H100.259L91.4045 91.8031H102.294" stroke="#2E2E2E" stroke-width="0.769171" stroke-linecap="round" stroke-linejoin="round"/>
<path d="M69.6245 76.4054C66.502 75.2635 64.2626 74.5357 60.6243 74.7767C58.4875 74.9191 58.1538 74.417 60.3625 73.6724C61.1768 73.3969 65.3058 72.8129 66.2073 72.6836C68.059 72.3944 69.9308 72.2534 71.8049 72.2619" stroke="#2E2E2E" stroke-width="0.769171" stroke-linecap="round" stroke-linejoin="round"/>
<path d="M95.9064 68.9159C95.6777 68.85 95.4557 68.7624 95.2437 68.6542L95.823 69.4586" stroke="#2E2E2E" stroke-width="0.769171" stroke-linecap="round" stroke-linejoin="round"/>
<path d="M91.3221 57.0633C91.3363 57.3053 91.2624 57.5443 91.1139 57.736C91.284 57.7577 91.4457 57.823 91.5831 57.9256C91.7206 58.0282 91.8292 58.1646 91.8984 58.3215C91.9853 58.1774 92.1019 58.0534 92.2405 57.9578C92.379 57.8622 92.5363 57.7971 92.7019 57.7669C92.8675 57.7367 93.0376 57.7421 93.201 57.7827C93.3644 57.8233 93.5172 57.8982 93.6494 58.0024C93.8607 58.17 94.0084 58.4049 94.0681 58.6674C94.2309 58.4698 94.4557 58.3328 94.706 58.2786C94.9563 58.2245 95.2176 58.2563 95.4477 58.3689C95.6777 58.4815 95.863 58.6684 95.9738 58.8993C96.0845 59.1303 96.1141 59.3918 96.0579 59.6417C96.2965 59.5542 96.5576 59.5494 96.7993 59.6281C97.041 59.7069 97.2491 59.8645 97.3904 60.0758C97.5317 60.2871 97.5978 60.5398 97.5783 60.7932C97.5587 61.0466 97.4545 61.286 97.2824 61.4731C97.5443 61.4998 97.7888 61.6163 97.9746 61.8028C98.1603 61.9893 98.2759 62.2343 98.3015 62.4963C98.3272 62.7583 98.2615 63.021 98.1155 63.2401C97.9695 63.4591 97.7522 63.6208 97.5005 63.6979C97.6315 63.7732 97.7458 63.8743 97.8366 63.9951C97.9273 64.1159 97.9927 64.2538 98.0286 64.4005C98.0656 64.5468 98.0727 64.6992 98.0492 64.8483C98.0258 64.9975 97.9725 65.1404 97.8924 65.2684L97.8051 64.8903C96.7582 60.557 94.6642 63.1017 94.4025 64.7449C94.3443 65.0502 94.1553 65.0648 93.778 64.6285C92.9928 63.6979 91.916 65.178 93.5155 66.4026C93.6686 66.8311 93.7229 67.2873 93.6754 67.7396L93.6326 68.3518C93.4881 68.3021 93.356 68.2215 93.2456 68.1158C93.1351 68.0102 93.0489 67.8818 92.9928 67.7396C92.8909 67.9802 92.709 68.1783 92.478 68.3003C92.2469 68.4223 91.9808 68.4608 91.7246 68.4093C91.4686 68.3578 91.2381 68.2197 91.0718 68.0184C90.9056 67.817 90.8137 67.5645 90.8116 67.3034C90.6043 67.444 90.3564 67.5123 90.1063 67.4974C89.8563 67.4825 89.6182 67.3854 89.429 67.2212C89.2399 67.0569 89.1104 66.8348 89.0606 66.5893C89.0109 66.3438 89.0437 66.0887 89.1539 65.8638C88.9925 65.8824 88.8289 65.8666 88.6741 65.8173C88.5192 65.768 88.3766 65.6864 88.2556 65.5779C88.1347 65.4694 88.0381 65.3364 87.9724 65.1878C87.9067 65.0392 87.8732 64.8783 87.8743 64.7158C87.8837 64.5247 87.9356 64.3381 88.0261 64.1696C88.1167 64.0011 88.2436 63.8549 88.3978 63.7415C88.1453 63.6678 87.926 63.509 87.7772 63.2921C87.6284 63.0752 87.5591 62.8136 87.5812 62.5515C87.5949 62.3906 87.6427 62.2344 87.7213 62.0934C87.8 61.9524 87.9077 61.8296 88.0373 61.7333C87.8723 61.574 87.7674 61.3626 87.7403 61.1348C87.5505 61.2827 87.3136 61.3567 87.0734 61.3433C86.8332 61.3298 86.606 61.2298 86.4338 61.0617C86.2617 60.8936 86.1564 60.6688 86.1372 60.429C86.1181 60.1891 86.1865 59.9505 86.3299 59.7573C86.088 59.7289 85.8646 59.6138 85.7011 59.4332C85.5377 59.2526 85.4454 59.0189 85.4413 58.7753C85.437 58.5314 85.522 58.2944 85.6803 58.1087C85.8386 57.9231 86.0593 57.8017 86.3008 57.7674C86.1489 57.5789 86.0708 57.3417 86.0811 57.0999C86.0914 56.858 86.1893 56.6282 86.3566 56.4533C86.5243 56.2785 86.75 56.1709 86.9913 56.1506C87.2327 56.1303 87.4732 56.1988 87.6676 56.3431C87.7016 56.0967 87.8232 55.8707 88.0104 55.7068C88.1975 55.5429 88.4375 55.4519 88.6863 55.4508C88.9351 55.4486 89.1763 55.5362 89.3657 55.6974C89.5552 55.8586 89.6802 56.0827 89.718 56.3286C89.862 56.2186 90.0333 56.1499 90.2134 56.1298C90.3936 56.1097 90.5758 56.1389 90.7406 56.2144C90.9054 56.2899 91.0465 56.4088 91.1489 56.5583C91.2514 56.7078 91.3112 56.8824 91.3221 57.0633Z" stroke="#2E2E2E" stroke-width="0.769171" stroke-linejoin="round"/>
<path d="M69.5806 120.766V122.092" stroke="#2E2E2E" stroke-width="0.769171" stroke-linecap="round" stroke-linejoin="round"/>
<path d="M72.1605 123.347H70.835" stroke="#2E2E2E" stroke-width="0.769171" stroke-linecap="round" stroke-linejoin="round"/>
<path d="M69.5806 125.928V124.602" stroke="#2E2E2E" stroke-width="0.769171" stroke-linecap="round" stroke-linejoin="round"/>
<path d="M66.9993 123.347H68.3263" stroke="#2E2E2E" stroke-width="0.769171" stroke-linecap="round" stroke-linejoin="round"/>
<path d="M70.8352 123.347C70.5024 123.347 70.1832 123.215 69.9474 122.98C69.8307 122.864 69.7383 122.725 69.6753 122.573C69.6124 122.42 69.5803 122.257 69.5808 122.092C69.5811 122.257 69.5489 122.42 69.4859 122.573C69.423 122.725 69.3306 122.864 69.2141 122.98C69.0976 123.097 68.9592 123.189 68.8069 123.252C68.6545 123.315 68.4913 123.348 68.3264 123.347C68.6591 123.348 68.9782 123.479 69.2142 123.714C69.331 123.83 69.4236 123.969 69.4867 124.121C69.5497 124.273 69.582 124.437 69.5816 124.602C69.5814 124.354 69.6548 124.111 69.7923 123.905C69.9299 123.699 70.1255 123.538 70.3545 123.442C70.5076 123.379 70.6706 123.347 70.8352 123.347Z" stroke="#2E2E2E" stroke-width="0.769171" stroke-linecap="round" stroke-linejoin="round"/>
</svg>
